/* XPM */
static char *cat_32[] = {
/* columns rows colors chars-per-pixel */
"32 32 74 1 ",
"  c #47704C",
". c gray2",
"X c black",
"o c black",
"O c black",
"+ c #0E0E0E",
"@ c #060606",
"# c black",
"$ c #010101",
"% c #101010",
"& c gray3",
"* c gray13",
"= c gray10",
"- c gray13",
"; c black",
": c #0E0E0E",
"> c gray2",
", c None",
"< c black",
"1 c #2C2C2C",
"2 c black",
"3 c black",
"4 c #3F3F3F",
"5 c #3E3E3E",
"6 c #010000",
"7 c black",
"8 c gray24",
"9 c #1E1E1E",
"0 c gray34",
"q c gray46",
"w c #747474",
"e c #686868",
"r c #656565",
"t c gray39",
"y c #0C0C0C",
"u c #181717",
"i c white",
"p c gray20",
"a c #5A5A5A",
"s c #6F6F6F",
"d c gray52",
"f c #E1E1E1",
"g c #5D5D5D",
"h c gray26",
"j c #717171",
"k c gray42",
"l c #3A3A3A",
"z c #010101",
"x c #555555",
"c c gray28",
"v c #232323",
"b c #818181",
"n c #4C4C4C",
"m c gray78",
"M c gray30",
"N c #1C0A0B",
"B c #EEEEEE",
"V c #080707",
"C c #F1F1F1",
"Z c #CA4C50",
"A c #2D2C2C",
"S c gray47",
"D c LightGray",
"F c #E4E4E4",
"G c #D8D8D8",
"H c #341314",
"J c #909090",
"K c #E7E7E7",
"L c #E6595E",
"P c #FF7C80",
"I c #A0A0A0",
"U c #B1B1B1",
"Y c #B14246",
"T c #FD7B7F",
/* pixels */
"                        oOOo    ",
"                        .@@.o   ",
"   oXOXo               .@pp@X   ",
"  o.%+%.#OOOXo   oXOO#.@Vpl:.o  ",
"  X%ara:$&&&@.#O#.@&&&&zzypp@X  ",
" o.=teayVpppp:&&&:plllpyVzyA&O  ",
" X%MttnyVpyyppllllhhhhhlpyzV$O  ",
"o.=aeru6yANNVylcrMhhhccccluy$O  ",
"O%gssg%2$NZZHVpcsknhcrsssska+O  ",
";+tea=.O$NLPZNycsqknhnkqqwka+O  ",
";+xtx+XX@NZPLHyxwqqkMcxjwguy$O  ",
";+xtx+O .6HLPZNueqeesssqkpVV$#  ",
";+xet+# X@NZTZNyrguugwqwbIvn:>X<",
";+tqe=.  .$HYHyuxvzzueqqkAugv@3X",
";+ewsM@.X>$zuuggAxvzyrqSbket09><",
"O%artMy$+:yyaewwebIuyqddDBGhu@3X",
"o.=MMuyunxnueSqqdSpypGfSdCim=>X<",
" X@yyunatervareJFfdbGiKchKi,*X  ",
" o.$ugrrjwwgvAcGiiCCiiiFFi,5.o  ",
" o.=awwwqqjtaUmBiiiiiiiKfm5.    ",
" X%MrjqqqjravAldfBBBBCDl-*.     ",
" O:xtrwqwrrserewddSqbdq=2Xo     ",
" #+xttjqjrswqqwqjestatsg*.      ",
"o.=trtrwjebdqjeweveevaejg%.o    ",
"O%gwjrtqbdfFJwewruaautqbdk%X    ",
";+eqwsrbfBffmbwqruy:+gJfCD-O    ",
";+edddwSD,8-1twjtn:2>1Giif-O    ",
";+bFCfkuu=>X>=kbqwg%.*mffm*X    ",
";-Dii,1$$7X X%kfBBD-;.*--*.o    ",
"O*mfm4.#OX< o.1Fii,*X XOOXo     ",
"o.*-*.       X*mfm4.o           ",
" oO;Oo       o>-v->             "
};
